# xmcd
#
# Track frame offsets: 
#        150
#        6625
#        23663
#        48464
#        70330
#        91097
#        117605
#        143068
#        175363
#        189463
#        212872
#
# Disc length: 3064 seconds
#
# Revision: 0
# Processed by: cddbd v1.5.2PL0 Copyright (c) Steve Scherf et al.
# Submitted via: ExactAudioCopy v0.99pb3
#
DISCID=9f0bf60b
DTITLE=Irek Dudek Symphonic Blues - Rawa Blues '96
DYEAR=2006
DGENRE=Blues Rock, Boogie, Neo Swing, Rock'n'Roll
TTITLE0=Wprowadzenie - Jan Chojnacki
TTITLE1=Widzialem Szalenca
TTITLE2=Trouble In Love
TTITLE3=Walkin' In My Mind
TTITLE4=Slawnym Byc
TTITLE5=Blues A
TTITLE6=Za Duzo By Umrzec, Za Malo By Zyc
TTITLE7=A Jezeli Moj Dobry Boze
TTITLE8=So, It's True
TTITLE9=Something Must Have Changed
TTITLE10=Od Alojza Do Alexa
EXTD=
EXTT0=
EXTT1=
EXTT2=
EXTT3=
EXTT4=
EXTT5=
EXTT6=
EXTT7=
EXTT8=
EXTT9=
EXTT10=
PLAYORDER=
